# xmcd
#
# Track frame offsets: 
#        182
#        32432
#        44695
#        57782
#        76762
#        95732
#        108337
#        130947
#        147112
#        166970
#        183560
#        197850
#        215235
#        235057
#        251637
#        274087
#        287770
#
# Disc length: 4030 seconds
#
# Revision: 14
# Processed by: cddbd v1.5.1PL0 Copyright (c) Steve Scherf et al.
# Submitted via: ExactAudioCopy v0.95a4
#
DISCID=fb0fbc11
DTITLE=Eric Clapton - The Cream Of Eric Clapton
DYEAR=1987
DGENRE=Classic Rock
TTITLE0=Layla
TTITLE1=Badge
TTITLE2=I Feel Free
TTITLE3=Sunshine Of Your Love
TTITLE4=Crossroads
TTITLE5=Strange Brew
TTITLE6=White Room
TTITLE7=Cocaine
TTITLE8=I Shot The Sheriff
TTITLE9=Behind The Mask
TTITLE10=Forever Man
TTITLE11=Lay Down Sally
TTITLE12=Knockin' On Heaven's Door
TTITLE13=Wonderful Tonight
TTITLE14=Let It Grow
TTITLE15=Promises
TTITLE16=I've Got A Rock 'N' Roll Heart
EXTD=
EXTT0=
EXTT1=
EXTT2=
EXTT3=
EXTT4=
EXTT5=
EXTT6=
EXTT7=
EXTT8=
EXTT9=
EXTT10=
EXTT11=
EXTT12=
EXTT13=
EXTT14=
EXTT15=
EXTT16=
PLAYORDER=
